# xmcd
# 
# Track frame offsets:
#     182
#     2077
#     21390
#     39385
#     62450
#     79800
# 
# Disc length: 1412
# 
# Revision: 0
# Processed by: cddbd v1.5.2PL0 Copyright (c) Steve Scherf et al.
# Submitted via: fre:ac v1.0.17
# 
DISCID=3e058206
DTITLE=DJ Icey - Essential Mix ampler
DYEAR=0
DGENRE=Florida Breaks
TTITLE0=Essential Intro
TTITLE1=Crustation - Purple
TTITLE2=plump dj's- the push
TTITLE3=fluppy-blue horizon
TTITLE4=paul rubin-partygoing on
TTITLE5=music instructor feat. flying stepssupersonic(djIcey)
EXTD=
EXTT0=
EXTT1=
EXTT2=
EXTT3=
EXTT4=
EXTT5=
PLAYORDER=
